PathFileType	4	(X/Y/Z)	Run_400 02
DataRate	CameraRate	NumFrames	NumMarkers	Units	OrigDataRate	OrigDataStartFrame	OrigNumFrames
100	100	6	45	mm	100	203	137
Frame#	Time	LASI			RASI			LPSI			RPSI			RTH1			RTH2			RTH3			LTH1			LTH2			LTH3			RTB1			RTB2			RTB3			RLMAL			RMMAL			LTB1			LTB2			LTB3			RCAL			RTOE			RMT5			LCAL			LTOE			LMT5			LACR			RACR			CLAV			C7			LPSH			RUA1			RUA2			RUA3			RLEL			RMEL			LUA1			LUA2			LUA3			LLEL			LMEL			RFAsuperior			RFAradius			RFAulna			LFAsuperior			LFAradius			LFAulna		
		X1	Y1	Z1	X2	Y2	Z2	X3	Y3	Z3	X4	Y4	Z4	X5	Y5	Z5	X6	Y6	Z6	X7	Y7	Z7	X8	Y8	Z8	X9	Y9	Z9	X10	Y10	Z10	X11	Y11	Z11	X12	Y12	Z12	X13	Y13	Z13	X14	Y14	Z14	X15	Y15	Z15	X16	Y16	Z16	X17	Y17	Z17	X18	Y18	Z18	X19	Y19	Z19	X20	Y20	Z20	X21	Y21	Z21	X22	Y22	Z22	X23	Y23	Z23	X24	Y24	Z24	X25	Y25	Z25	X26	Y26	Z26	X27	Y27	Z27	X28	Y28	Z28	X29	Y29	Z29	X30	Y30	Z30	X31	Y31	Z31	X32	Y32	Z32	X33	Y33	Z33	X34	Y34	Z34	X35	Y35	Z35	X36	Y36	Z36	X37	Y37	Z37	X38	Y38	Z38	X39	Y39	Z39	X40	Y40	Z40	X41	Y41	Z41	X42	Y42	Z42	X43	Y43	Z43	X44	Y44	Z44	X45	Y45	Z45	

203	  2.030000	970.950645	1086.941665	-451.786524	975.312580	1097.501389	-220.487334	809.265104	1129.497144	-383.571587	809.487474	1125.308542	-292.150861	950.474196	836.857912	-162.312283	1046.202777	793.163943	-185.065394	1017.389522	680.694174	-196.046351	813.746348	880.901276	-490.724064	846.229629	754.094501	-474.405603	763.155595	678.093647	-457.013706	1146.863007	469.284029	-247.148521	1121.462295	402.759857	-207.429045	1174.283500	289.399713	-261.711166	1164.146881	164.982043	-253.385768	1180.627054	200.863757	-330.972600	643.555774	484.574805	-415.862858	514.540634	529.840911	-422.161233	457.864056	434.409041	-385.456739	1111.174683	141.185322	-321.497852	1334.715943	151.057063	-300.481523	1272.467072	104.596161	-236.409108	300.240551	481.946669	-317.365582	319.289131	260.002853	-349.114273	273.678055	315.626439	-403.867925	936.280313	1610.172353	-463.239083	892.861081	1571.360242	-161.644710	987.175155	1521.058176	-283.268942	876.749313	1610.400286	-314.901247	860.026119	1569.110009	-493.001285	785.974837	1457.893890	-92.413873	707.592469	1435.103287	-141.032105	677.444535	1386.840657	-99.422047	656.597981	1321.225922	-70.156626	654.241165	1309.345104	-160.219240	885.664265	1485.317236	-556.483240	829.891598	1401.722206	-558.924386	867.648075	1361.609243	-610.532231	888.348803	1283.967049	-630.803189	828.879137	1265.910279	-557.523560	699.609454	1255.042581	-74.257987	898.316460	1241.047784	-99.311980	875.780751	1178.784258	-86.461662	949.172514	1267.799742	-555.418652	1024.549230	1385.913097	-447.676072	1057.830813	1324.998093	-445.582841	
204	  2.040000	970.495216	1082.750635	-452.913865	975.365540	1094.572623	-220.442350	808.764857	1123.983068	-383.206225	809.450357	1121.285267	-292.156407	948.084946	832.945365	-160.007848	1043.900590	788.702644	-184.712498	1014.199267	676.225882	-195.994203	817.042912	873.155667	-489.399412	853.931958	747.401896	-475.445554	774.016656	669.250569	-457.254714	1138.878486	462.481907	-248.336894	1112.100018	395.573892	-210.022012	1164.472344	282.247020	-264.667041	1152.670454	157.415263	-258.092067	1170.528312	194.884420	-336.063826	654.896929	481.864953	-417.034060	529.245962	535.641462	-424.431379	466.204874	445.482335	-387.176752	1100.017346	135.967882	-326.900907	1323.526367	142.046601	-304.953339	1260.518765	 94.032593	-242.499549	311.710478	504.691287	-320.640398	316.886546	281.846459	-350.374637	276.325398	339.776868	-406.575401	937.968726	1606.657627	-462.158806	895.723712	1566.716466	-160.873845	988.178989	1516.419168	-283.227132	877.676568	1606.455068	-313.664429	860.979312	1566.862285	-491.633652	789.611906	1452.624742	-90.455553	710.809870	1428.727633	-137.619870	682.088456	1380.024565	-95.600771	662.235098	1314.229432	-66.171185	659.234670	1301.858459	-155.862983	884.900787	1484.682739	-556.572251	827.642342	1402.273100	-560.064200	864.208638	1362.451154	-612.729279	882.950933	1284.868358	-634.764028	824.833131	1266.100252	-561.663670	705.398529	1247.998918	-70.225072	904.122599	1234.404716	-96.419817	881.572164	1172.041676	-83.895939	944.777597	1264.058454	-561.482344	1025.505000	1375.435504	-450.003373	1057.505218	1314.704802	-453.603716	
205	  2.050000	969.664493	1077.144546	-453.721482	975.124655	1090.226359	-221.397130	807.986686	1117.705319	-382.057848	808.983182	1116.570474	-291.821100	946.834303	829.287523	-160.467790	1042.714238	786.303532	-184.865730	1011.120780	672.343542	-197.164723	820.597798	864.092828	-488.108053	862.441578	739.945013	-476.839752	785.987363	659.592489	-458.027769	1129.803024	454.383572	-250.246497	1100.887689	387.724265	-212.836386	1150.999235	273.377274	-267.517133	1135.893146	148.237994	-261.834675	1155.432375	186.429133	-339.735387	668.248955	478.415442	-418.843121	546.257665	539.956640	-426.992319	477.801101	454.973924	-389.144627	1082.927345	129.828485	-330.885353	1306.235620	128.330068	-309.381597	1241.869415	 80.094564	-247.995573	326.776184	524.493404	-323.498475	320.158958	301.694051	-352.204796	284.027404	361.489723	-409.497800	938.980428	1601.890867	-461.537616	898.519208	1560.795530	-160.119650	989.125811	1510.838968	-283.355331	878.430208	1601.351569	-312.610906	861.292135	1563.137268	-490.417801	793.786534	1445.833037	-88.140125	714.454091	1420.691882	-133.451430	687.468335	1371.449376	-90.948204	668.750593	1305.563350	-61.159235	665.165972	1292.668116	-150.494702	883.425843	1482.804786	-556.851645	824.718925	1401.760509	-561.198602	859.931758	1362.292623	-615.037872	876.600763	1284.828719	-638.945755	819.772954	1265.406141	-565.859224	712.174615	1239.249539	-65.487199	910.798275	1226.385262	-93.694996	888.536972	1163.937230	-80.996782	939.378495	1259.023795	-568.240405	1025.716990	1362.791609	-453.626048	1056.469576	1302.490228	-463.064015	
206	  2.060000	968.377310	1070.423330	-453.845092	974.314279	1084.607130	-222.409653	806.856640	1110.870031	-380.662858	807.742854	1110.960970	-291.001752	946.376577	825.015497	-163.453686	1041.662587	784.440278	-186.972637	1007.655347	668.339517	-199.269904	824.650887	854.197764	-487.333396	871.691292	732.065962	-478.658937	799.062621	649.406322	-459.340072	1119.609149	444.865578	-252.707319	1088.255657	379.292053	-215.216012	1133.972655	262.951709	-269.833276	1114.224056	138.058978	-264.203805	1134.638046	175.517342	-341.558517	683.678586	474.271427	-421.301081	565.496273	542.836141	-429.823353	492.460644	462.641228	-391.378301	1059.808260	122.513352	-333.194466	1282.732291	110.872968	-314.824410	1216.798643	 65.861967	-252.085634	345.103005	541.068925	-325.762975	328.381249	319.007448	-355.287058	295.786193	380.604373	-412.814291	939.270417	1596.048470	-461.274158	901.161019	1553.671783	-159.386004	990.027131	1504.447329	-283.613584	879.069286	1595.140620	-311.830177	860.927042	1557.968422	-489.279445	798.535357	1437.476678	-85.485921	718.575603	1411.001005	-128.612602	693.578159	1361.155503	-85.622657	676.152184	1295.246996	-55.201225	671.904554	1281.967346	-144.171214	881.073131	1479.701796	-557.256757	821.114595	1400.139391	-562.270537	854.811623	1361.117353	-617.432663	869.426648	1283.845632	-643.254954	813.786804	1263.784012	-569.956176	719.992472	1228.935072	-60.110771	918.413152	1217.126603	-91.176426	896.653410	1154.652223	-77.737898	933.020571	1252.811486	-575.587978	1025.093736	1347.924300	-458.158523	1054.606660	1288.029219	-472.712515	
207	  2.070000	966.681234	1062.914611	-453.187806	972.883922	1077.975096	-222.180704	805.397518	1103.451600	-379.443269	805.835043	1104.155658	-289.908254	945.727327	819.053855	-167.042757	1039.790682	781.082832	-191.809019	1003.841031	663.010226	-201.558438	829.315279	843.852578	-487.282880	881.629450	723.976732	-480.862863	813.237232	638.863345	-461.203278	1108.059344	433.852749	-255.774653	1074.276329	370.043579	-217.309184	1112.984380	251.224395	-272.226076	1087.246652	128.064599	-265.959877	1106.861453	163.230438	-342.995109	701.263136	469.554666	-424.463994	586.901594	544.377243	-432.935725	509.998898	468.414712	-393.996315	1030.207435	114.228611	-334.955235	1253.015840	 92.947385	-321.357671	1185.588769	 55.319232	-254.303811	366.324823	554.381914	-327.652455	340.860684	333.563617	-359.746864	311.084516	397.053532	-416.686327	939.020416	1589.197326	-461.236162	903.662737	1545.404021	-158.666085	990.897232	1497.288935	-283.991945	879.632013	1587.800276	-311.341068	860.029950	1551.470169	-488.165395	803.877543	1427.654683	-82.528033	723.250782	1399.675396	-123.273527	700.438537	1349.303745	-79.709989	684.463199	1283.389807	-48.467811	679.024508	1269.923685	-137.028287	877.817811	1475.428798	-557.645201	816.915831	1397.336994	-563.193358	848.930007	1358.908542	-619.837415	861.557041	1281.917507	-647.552044	807.148757	1261.173966	-573.899316	728.908989	1217.265025	-54.196152	926.997174	1206.831003	-88.904833	905.891274	1144.354824	-74.370331	925.773265	1245.503359	-583.420445	1023.715409	1330.585373	-462.963800	1051.880311	1271.475340	-482.518053	
208	  2.080000	964.747901	1054.850383	-451.961746	971.330669	1070.525758	-220.654568	803.635647	1095.407166	-378.417732	803.913595	1096.241514	-289.013814	943.925030	811.290300	-169.124610	1036.590556	774.691100	-198.215457	999.717022	655.389982	-203.727712	834.533869	833.227957	-487.734653	892.269043	715.797095	-483.359961	828.508409	628.069176	-463.519791	1094.869403	421.838439	-260.501368	1059.017878	359.941049	-220.712857	1087.955888	238.960756	-276.623788	1054.864518	119.847137	-268.870834	1072.189599	151.483750	-346.495361	720.980539	464.475694	-428.212010	610.293590	544.693270	-436.376085	530.182947	472.384518	-397.110991	994.623124	106.027811	-337.715656	1218.218563	 78.807131	-327.645800	1149.448552	 50.707250	-255.315251	390.060346	564.516967	-329.646202	357.156380	345.267477	-365.148547	329.877549	410.613812	-421.167447	938.463234	1581.273219	-461.436807	906.178053	1536.115997	-157.927008	991.828128	1489.311958	-284.527043	880.129445	1579.287213	-311.061243	858.789884	1543.775533	-487.088177	809.838520	1416.509488	-79.268911	728.594593	1386.782048	-117.597992	708.114497	1336.128272	-73.220499	693.732652	1270.223543	-41.232094	686.195612	1256.608644	-129.345559	873.823775	1470.017255	-557.886728	812.289058	1393.252007	-563.823220	842.395086	1355.658807	-622.148053	853.053878	1279.017339	-651.741360	800.006424	1257.578562	-577.634506	738.945835	1204.489844	-47.918912	936.500362	1195.795114	-86.937424	916.235521	1133.279336	-71.277387	917.652915	1237.131220	-591.614680	1021.722466	1310.796172	-468.089393	1048.217016	1253.428522	-493.454936	
